<svg width="36" height="36" viewBox="0 0 36 36" fill="none" xmlns="http://www.w3.org/2000/svg">
<g clip-path="url(#clip0_30_315)">
<path d="M18 19.125C20.7964 19.125 23.0625 16.8581 23.0625 14.0625C23.0625 11.2669 20.7985 9 18 9C15.2016 9 12.9375 11.2641 12.9375 14.0625C12.9375 16.8609 15.2016 19.125 18 19.125ZM20.25 22.5H15.75C12.4074 22.5 9.59487 24.6009 8.45862 27.5421C10.9055 29.9883 14.2805 31.5 18 31.5C21.7196 31.5 25.0946 29.9862 27.5414 27.5421C26.4024 24.6023 23.5899 22.5 20.25 22.5Z" fill="#651FFF"/>
<path opacity="0.4" d="M18 0C8.05781 0 0 8.05781 0 18C0 27.9422 8.05781 36 18 36C27.9422 36 36 27.9422 36 18C36 8.05781 27.9422 0 18 0ZM18 9C20.7963 9 23.0625 11.2669 23.0625 14.0625C23.0625 16.8581 20.7984 19.125 18 19.125C15.2044 19.125 12.9375 16.8581 12.9375 14.0625C12.9375 11.2669 15.2016 9 18 9ZM18 31.5C14.2784 31.5 10.9055 29.9862 8.45859 27.5421C9.59766 24.6023 12.4102 22.5 15.75 22.5H20.25C23.5927 22.5 26.4052 24.6009 27.5414 27.5421C25.0945 29.9883 21.7195 31.5 18 31.5Z" fill="#651FFF"/>
</g>
<defs>
<clipPath id="clip0_30_315">
<rect width="36" height="36" fill="white"/>
</clipPath>
</defs>
</svg>
