<svg width="38" height="34" viewBox="0 0 38 34" fill="none" xmlns="http://www.w3.org/2000/svg">
<g clip-path="url(#clip0_30_307)">
<path d="M14.7778 10.625V0L25.3334 10.625H14.7778ZM19.0001 24.4375C19.0001 19.1582 23.2553 14.875 28.5001 14.875C33.7448 14.875 38.0001 19.1582 38.0001 24.4375C38.0001 29.7168 33.7448 34 28.5001 34C23.2553 34 19.0001 29.7168 19.0001 24.4375ZM28.5001 30.8125C29.3775 30.8125 30.0834 30.102 30.0834 29.2188C30.0834 28.3355 29.3775 27.625 28.5001 27.625C27.6226 27.625 26.9167 28.3355 26.9167 29.2188C26.9167 30.102 27.6226 30.8125 28.5001 30.8125ZM24.2778 21.7812C24.2778 22.3656 24.7528 22.8438 25.3334 22.8438C25.9139 22.8438 26.3889 22.3656 26.3889 21.7812V21.3563C26.3889 21.0043 26.6726 20.7188 27.0223 20.7188H29.6942C30.2021 20.7188 30.6112 21.1305 30.6112 21.6418C30.6112 21.9871 30.4198 22.2992 30.123 22.4652L28.0119 23.5809C27.6622 23.7668 27.4445 24.1254 27.4445 24.5172V25.5C27.4445 26.0844 27.9195 26.5625 28.5001 26.5625C29.0806 26.5625 29.5556 26.0844 29.5556 25.5V25.1613L31.106 24.3445C32.1021 23.8133 32.7223 22.7176 32.7223 21.6418C32.7223 19.9617 31.3632 18.5938 29.6942 18.5938H27.0223C25.5049 18.5938 24.2778 19.8289 24.2778 21.3563V21.7812Z" fill="#651FFF"/>
<path opacity="0.4" d="M0 4.25C0 1.90254 1.8901 0 4.22222 0H14.7778V10.625H25.3333V13.1883C20.458 14.5762 16.8889 19.0852 16.8889 24.4375C16.8889 28.3621 18.8087 31.8285 21.751 33.9535C21.5465 33.9801 21.3288 34 21.1111 34H4.22222C1.8901 34 0 32.0941 0 29.75V4.25Z" fill="#651FFF"/>
</g>
<defs>
<clipPath id="clip0_30_307">
<rect width="38" height="34" fill="white"/>
</clipPath>
</defs>
</svg>
