<svg width="536" height="285" viewBox="0 0 536 285" fill="none" xmlns="http://www.w3.org/2000/svg">
<path d="M104.383 114.914L104.041 112.257C126.468 109.013 112.018 89.7912 96.8845 93.7856C82.2525 81.2143 59.0054 110.047 56.9998 142.875L113.659 142.57C113.682 142.55 113.682 122.071 104.383 114.914Z" fill="#0B0D0E"/>
<path d="M126.992 224.507L127.88 284.586H38.3563L54.0139 222.216L120.2 224.284L126.992 224.507Z" fill="#651FFF"/>
<path opacity="0.1" d="M126.308 226.089L48.5896 243.709L53.9911 222.236L124.576 224.284L126.308 226.089Z" fill="#0B0D0E"/>
<path d="M84.5087 284.889L83.597 284.788L87.4488 258.794L105.841 253.907L106.092 254.698L88.2693 259.422L84.5087 284.889Z" fill="#0B0D0E"/>
<path d="M44.396 161.062L50.5496 221.871C50.7776 224.223 53.1251 226.068 55.9968 226.149L125.579 227.873C130.661 227.974 134.741 224.446 134.399 220.249L128.724 150.64L90.366 134.967L44.396 161.062Z" fill="#00E5FF"/>
<path d="M156.529 170.045L138.251 148.126C134.422 143.28 128.519 140.056 121.955 139.185L89.5001 134.906L143.857 194.6C149.19 200.459 159.333 200.115 164.164 193.931L180.962 172.478L166.785 159.684L156.529 170.045Z" fill="#00E5FF"/>
<path d="M204.733 153.763C208.721 150.215 206.169 149.201 198.169 151.472C190.169 153.763 177.634 151.979 173.919 153.257C172.506 153.743 169.725 156.48 166.785 159.684L180.962 172.499L188.46 162.908C188.46 162.888 200.744 157.312 204.733 153.763Z" fill="#FF8F78"/>
<path d="M90.3889 134.967L57.2048 138.333C53.3531 138.718 49.7065 140.158 46.812 142.449L6.38027 174.343C2.09551 177.729 -0.251993 182.657 0.0215021 187.746C0.272206 192.288 2.55133 196.526 6.35748 199.547L32.8182 220.431L48.2251 206.015L30.4023 187.259L89.5684 142.55L90.3889 134.967Z" fill="#00E5FF"/>
<path d="M32.8411 220.431C32.8411 220.431 51.735 232.739 53.7179 232.516C56.7491 232.151 52.8974 227.284 52.8974 227.284C52.8974 227.284 59.3701 232.232 61.0111 231.076C62.0139 230.346 60.806 227.649 55.9514 222.966C55.9514 222.966 65.7289 228.967 67.5066 227.832C71.1532 225.48 57.5696 216.842 57.5696 216.842C57.5696 216.842 66.6861 221.344 68.3043 219.904C69.9225 218.464 48.248 206.015 48.248 206.015L32.8411 220.431Z" fill="#FF8F78"/>
<path d="M93.5865 173.71C95.1449 173.136 95.8849 171.547 95.2394 170.16C94.5939 168.774 92.8073 168.115 91.249 168.69C89.6907 169.264 88.9506 170.853 89.5961 172.24C90.2416 173.626 92.0282 174.284 93.5865 173.71Z" fill="white"/>
<g opacity="0.8">
<path d="M133.692 143.808C128.974 144.274 124.257 145.937 120.154 147.903C110.855 152.364 102.286 159.846 91.1408 160.15C80.4973 160.434 72.5204 153.175 63.4722 149.363C56.5665 146.444 48.7263 145.714 41.2507 146.89L39.9288 147.944C48.0425 146.383 56.726 147.133 64.2471 150.58C72.019 154.128 78.9931 159.866 87.9728 160.819C97.6363 161.854 106.274 156.703 113.978 152.222C119.858 148.816 127.242 144.984 134.558 144.456C134.262 144.213 133.988 144.01 133.692 143.808Z" fill="white"/>
<path d="M21.9011 211.794C28.3282 207.374 34.7326 202.974 41.1597 198.554L40.5899 197.966C34.14 202.406 27.69 206.827 21.2401 211.267L21.9011 211.794Z" fill="white"/>
<path d="M159.652 166.902C163.526 172.904 167.401 178.886 171.275 184.887L171.822 184.178C167.97 178.216 164.119 172.255 160.244 166.294L159.652 166.902Z" fill="white"/>
</g>
<path d="M55.23 167.794L41.6785 177.777L42.2599 178.402L55.8115 168.418L55.23 167.794Z" fill="#0B0D0E"/>
<path d="M19.2943 185.847L19.2023 186.654L30.3584 187.661L30.4504 186.854L19.2943 185.847Z" fill="#0B0D0E"/>
<path d="M129.573 165.069L128.668 165.167L130.998 182.276L131.903 182.178L129.573 165.069Z" fill="#0B0D0E"/>
<path d="M166.103 159.645L151.237 174.691L151.922 175.227L166.788 160.18L166.103 159.645Z" fill="#0B0D0E"/>
<path d="M100.28 115.4V137.806C100.28 142.753 95.7675 146.768 90.2064 146.768C84.6454 146.768 80.1327 142.753 80.1327 137.806V115.4H100.28Z" fill="#FF8F78"/>
<path d="M100.28 127.302V136.285C93.6708 134.501 88.7251 129.695 84.4403 123.774L100.28 127.302Z" fill="#CC7260"/>
<path d="M107.368 119.76C107.163 123.288 106.206 126.147 103.881 126.897C96.5652 129.269 84.4402 123.795 84.4402 123.795L81.4546 112.257L86.104 103.093L100.896 98.7939L104.884 101.47C104.884 101.47 106.798 108.486 107.3 115.177C107.414 116.759 107.459 118.32 107.368 119.76Z" fill="#FF8F78"/>
<path d="M82.1155 114.609C87.198 106.073 94.4456 101.105 104.884 101.45L106.046 98.2056L95.2433 97.3135L81.2951 101.308L77.9675 111.507L82.1155 114.609Z" fill="#0B0D0E"/>
<path d="M104.269 112.763C104.269 113.493 103.767 114.061 103.129 114.061C102.491 114.061 101.99 113.473 101.99 112.763C101.99 112.034 102.491 111.466 103.129 111.466C103.767 111.466 104.269 112.054 104.269 112.763Z" fill="#0B0D0E"/>
<path d="M95.7675 112.723C95.7675 113.453 95.2661 114.021 94.628 114.021C93.9898 114.021 93.4884 113.433 93.4884 112.723C93.4884 111.994 93.9898 111.426 94.628 111.426C95.2661 111.426 95.7675 111.994 95.7675 112.723Z" fill="#0B0D0E"/>
<path d="M100.69 114.366C101.055 114.67 101.374 114.995 101.625 115.38C101.898 115.745 102.103 116.171 102.217 116.637C102.263 116.88 102.286 117.124 102.24 117.408C102.195 117.671 102.012 117.975 101.739 118.138C101.67 118.178 101.602 118.219 101.534 118.259L101.329 118.34C101.192 118.381 101.055 118.401 100.918 118.421C100.645 118.442 100.394 118.421 100.143 118.381V118.077C100.371 118.016 100.576 117.975 100.782 117.894C100.964 117.833 101.123 117.732 101.237 117.631C101.329 117.529 101.374 117.428 101.397 117.286C101.42 117.144 101.397 116.982 101.351 116.799C101.283 116.455 101.123 116.069 100.941 115.704L100.394 114.569L100.69 114.366Z" fill="#0B0D0E"/>
<path d="M95.4028 119.293C96.4968 122.476 100.166 123.145 101.283 120.287L95.4028 119.293Z" fill="white"/>
<path d="M96.6336 108.343C96.7019 108.85 96.2005 109.134 95.7219 109.296C94.6507 109.621 93.4656 109.864 92.2804 109.884C91.893 109.884 91.1865 110.006 90.9357 109.661C90.6623 109.317 91.0497 109.013 91.3916 108.871C92.0297 108.587 96.4512 106.924 96.6336 108.343Z" fill="#0B0D0E"/>
<path d="M101.283 108.181C101.237 108.688 101.693 108.972 102.126 109.134C103.106 109.458 104.223 109.722 105.294 109.763C105.636 109.783 106.297 109.884 106.525 109.56C106.753 109.215 106.411 108.931 106.092 108.769C105.499 108.505 101.397 106.802 101.283 108.181Z" fill="#0B0D0E"/>
<path opacity="0.4" d="M92.2085 119.164C93.2231 118.261 93.2231 116.798 92.2085 115.895C91.1938 114.992 89.5487 114.992 88.5341 115.895C87.5194 116.798 87.5194 118.261 88.5341 119.164C89.5487 120.066 91.1938 120.066 92.2085 119.164Z" fill="#FF5970"/>
<path opacity="0.4" d="M107.368 119.759C107.254 119.779 107.163 119.779 107.049 119.779C105.613 119.779 104.451 118.745 104.451 117.468C104.451 116.19 105.613 115.156 107.049 115.156C107.14 115.156 107.232 115.156 107.323 115.177C107.414 116.758 107.459 118.319 107.368 119.759Z" fill="#FF5970"/>
<path d="M82.8517 118.7C84.9555 117.619 85.4722 114.911 84.0058 112.652C82.5394 110.392 79.6452 109.436 77.5413 110.517C75.4375 111.598 74.9208 114.305 76.3872 116.565C77.8537 118.825 80.7479 119.78 82.8517 118.7Z" fill="#FF8F78"/>
<path d="M81.3861 116.19C81.2721 115.785 81.1582 115.42 80.9758 115.075C80.8163 114.73 80.6112 114.406 80.3605 114.122C80.1098 113.838 79.7907 113.615 79.4488 113.412C79.1069 113.209 78.7195 113.067 78.2637 112.946L78.2865 112.642C78.7879 112.561 79.3121 112.621 79.7907 112.804C80.2693 112.986 80.7023 113.27 81.0214 113.635C81.3405 114 81.5684 114.426 81.6824 114.872C81.7963 115.318 81.7963 115.764 81.7052 116.19H81.3861Z" fill="#0B0D0E"/>
<path d="M433.854 112.865V131.357C433.854 136.852 428.84 141.313 422.663 141.313C416.487 141.313 411.495 136.852 411.495 131.357V112.865H433.854Z" fill="#FF8F78"/>
<path d="M428.475 119.679C424.805 125.214 419.7 129.492 411.495 131.013V119.942L422.731 117.874L428.475 119.679Z" fill="#0B0D0E"/>
<path d="M433.102 109.196L428.475 119.679C419.062 125.539 412.293 124.221 408.51 121.341C407.53 120.591 406.869 118.787 406.459 116.536C406.139 114.812 405.934 112.846 405.843 110.858C405.57 105.465 405.889 100.092 405.889 100.092L423.689 91.1094L432.395 97.7194L433.102 109.196Z" fill="#FF8F78"/>
<path d="M431.688 107.33C431.278 101.409 428.27 97.2933 424.395 95.4684C424.395 95.4684 403.199 110.169 398.664 97.7799C394.88 87.4188 410.173 86.4252 412.202 87.9865C418.173 82.37 426.013 81.6197 428.817 88.5542C442.218 89.8519 445.204 95.9551 436.543 107.452L431.688 107.33Z" fill="#0B0D0E"/>
<path d="M410.288 108.445C410.288 109.054 409.854 109.54 409.33 109.54C408.806 109.54 408.373 109.054 408.373 108.445C408.373 107.837 408.806 107.351 409.33 107.351C409.854 107.351 410.288 107.837 410.288 108.445Z" fill="#0B0D0E"/>
<path d="M418.173 108.08C418.173 108.689 417.74 109.175 417.216 109.175C416.692 109.175 416.259 108.689 416.259 108.08C416.259 107.472 416.692 106.985 417.216 106.985C417.74 106.985 418.173 107.472 418.173 108.08Z" fill="#0B0D0E"/>
<path d="M412.977 109.195C412.658 109.662 412.338 110.108 412.042 110.574C411.905 110.797 411.746 111.041 411.632 111.264C411.518 111.487 411.404 111.73 411.358 111.933C411.336 112.034 411.336 112.135 411.336 112.196C411.336 112.237 411.358 112.257 411.358 112.277C411.358 112.298 411.358 112.298 411.381 112.318L411.45 112.379C411.609 112.561 411.814 112.723 412.019 112.865C412.475 113.17 412.999 113.413 413.524 113.636L413.455 113.94C412.817 113.9 412.179 113.737 411.609 113.453C411.313 113.311 411.039 113.129 410.789 112.886L410.697 112.805C410.675 112.764 410.629 112.703 410.606 112.663C410.538 112.561 410.515 112.46 410.492 112.359C410.447 112.156 410.47 111.973 410.515 111.811C410.584 111.487 410.72 111.203 410.88 110.959C411.039 110.696 411.222 110.473 411.404 110.25C411.791 109.804 412.225 109.398 412.703 109.033L412.977 109.195Z" fill="#0B0D0E"/>
<path d="M410.356 104.572C410.629 105.241 409.649 105.383 408.532 105.647C407.416 105.91 406.436 105.89 406.344 105.566C406.253 105.241 407.051 104.755 408.168 104.491C409.285 104.207 410.105 103.964 410.356 104.572Z" fill="#0B0D0E"/>
<path d="M415.849 104.085C415.529 104.815 416.646 104.998 417.9 105.302C419.153 105.606 420.247 105.565 420.361 105.2C420.475 104.835 419.564 104.288 418.31 103.984C417.056 103.68 416.122 103.416 415.849 104.085Z" fill="#0B0D0E"/>
<path d="M412.612 117.104C413.205 117.083 413.774 117.043 414.321 116.962C414.868 116.881 415.415 116.759 415.94 116.576C416.464 116.394 416.965 116.171 417.444 115.907C417.922 115.644 418.401 115.36 418.88 115.056L419.13 115.258C418.788 115.725 418.378 116.13 417.877 116.475C417.398 116.82 416.828 117.104 416.236 117.306C415.051 117.712 413.729 117.752 412.544 117.408L412.612 117.104Z" fill="#0B0D0E"/>
<path opacity="0.4" d="M423.278 114.69C425.104 114.69 426.583 113.373 426.583 111.75C426.583 110.126 425.104 108.81 423.278 108.81C421.453 108.81 419.974 110.126 419.974 111.75C419.974 113.373 421.453 114.69 423.278 114.69Z" fill="#FF5970"/>
<path opacity="0.4" d="M408.692 113.758C408.692 115.056 407.757 116.151 406.458 116.536C406.139 114.812 405.934 112.845 405.843 110.858C407.438 111.041 408.692 112.257 408.692 113.758Z" fill="#FF5970"/>
<path d="M437.495 110.593C438.59 107.897 437.51 105.079 435.083 104.299C432.656 103.519 429.801 105.072 428.706 107.769C427.611 110.465 428.691 113.283 431.118 114.063C433.545 114.843 436.4 113.29 437.495 110.593Z" fill="#FF8F78"/>
<path d="M431.893 110.23C431.734 109.824 431.734 109.358 431.871 108.912C432.007 108.486 432.258 108.081 432.577 107.736C432.896 107.391 433.306 107.107 433.762 106.925C434.218 106.742 434.742 106.641 435.244 106.742V107.046C434.834 107.148 434.469 107.33 434.15 107.533C433.831 107.736 433.512 107.979 433.261 108.243C432.987 108.506 432.782 108.811 432.6 109.135C432.44 109.459 432.326 109.804 432.258 110.189L431.893 110.23Z" fill="#0B0D0E"/>
<path d="M388.681 223.351L374.072 284.605H477.544L470.228 222.418L388.681 223.351Z" fill="#FF5970"/>
<path d="M428.452 284.889L423.415 258.449L412.384 253.4L412.795 252.67L424.236 257.901L424.281 258.104L429.341 284.767L428.452 284.889Z" fill="#0B0D0E"/>
<path opacity="0.1" d="M391.713 231.056L472.736 245.371L470.229 222.418L391.713 231.056Z" fill="#0B0D0E"/>
<path d="M329.264 178.864L318.028 170.713C315.521 168.888 312.422 167.814 309.162 167.672C298.701 167.165 276.183 167.449 276.252 168.99C276.457 173.592 301.459 179.229 301.459 179.229L322.906 197.599L329.264 178.864Z" fill="#FF8F78"/>
<path d="M424.19 133.628L390.527 137.176C382.345 138.048 375.257 142.671 371.907 149.383L353.492 186.265L329.264 178.844L315.362 198.978L358.141 217.511C364.819 220.41 372.887 218.099 376.397 212.28L424.19 133.628Z" fill="#651FFF"/>
<path d="M424.19 133.628L454.958 135.473C461.91 135.899 468.519 138.332 473.761 142.448L497.783 161.265L497.076 142.955L524.631 140.157L535.617 186.59C537.349 193.889 533.087 201.27 525.406 204.271C519.366 206.643 512.324 205.812 507.173 202.121L428.703 146.037L424.19 133.628Z" fill="#651FFF"/>
<path d="M424.19 133.628L468.679 149.18L476.108 222.702C476.587 227.467 472.393 231.583 467.015 231.644L390.231 232.353C385.126 232.394 380.955 228.744 380.909 224.202L380.499 160.859L424.19 133.628Z" fill="#651FFF"/>
<path d="M497.099 142.955C497.099 142.955 480.895 121.624 484.61 120.307C488.325 118.989 493.703 127.586 493.703 127.586L494.342 123.165C494.41 122.679 494.364 122.172 494.228 121.706L493.909 120.712C493.59 119.698 492.792 118.847 491.743 118.401L488.211 116.88C488.211 116.88 485.521 120.448 483.447 120.185C482.057 120.002 482.786 117.123 483.425 115.217C483.767 114.183 484.587 113.352 485.704 112.906L488.598 111.75C489.487 111.405 490.49 111.405 491.379 111.77L496.256 113.838C496.256 113.838 493.134 100.598 495.367 100.334C497.601 100.071 500.883 109.743 500.883 109.743C500.883 109.743 499.834 100.598 501.772 100.598C503.709 100.598 506.831 111.324 506.831 111.324C506.831 111.324 506.421 106.174 508.016 105.89C511.731 105.221 519.64 140.603 519.64 140.603L497.099 142.955Z" fill="#FF8F78"/>
<path d="M407.461 129.085L438.982 128.7L439.643 134.519C429.728 138.778 417.74 139.102 406.96 135.493L407.461 129.085Z" fill="#E0F7FA"/>
<g opacity="0.6">
<path d="M369.719 153.803C374.596 153.742 379.451 152.525 383.621 150.112C389 146.99 392.852 142.184 394.652 136.771L393.718 136.872C391.94 141.961 388.248 146.503 383.188 149.443C379.268 151.714 374.733 152.89 370.129 153.032L369.719 153.803Z" fill="white"/>
<path d="M478.342 146.037L477.59 145.449C466.992 148.652 455.323 144.232 450.605 135.209L449.625 135.148C454.525 144.942 467.038 149.666 478.342 146.037Z" fill="white"/>
<path d="M422.025 166.009C422.572 166.07 422.822 165.34 422.253 165.259C406.618 163.272 390.459 168.301 379.701 178.601C379.314 178.966 379.929 179.513 380.317 179.148C390.869 169.071 406.709 164.063 422.025 166.009Z" fill="white"/>
<path d="M469.362 173.876C452.519 181.885 431.962 182.676 414.435 175.984C413.934 175.782 413.478 176.451 414.002 176.654C431.848 183.466 452.679 182.696 469.818 174.545C470.297 174.301 469.841 173.632 469.362 173.876Z" fill="white"/>
</g>
<path d="M380.132 165.679L379.22 165.694L380.396 220.592L381.307 220.576L380.132 165.679Z" fill="#0B0D0E"/>
<path d="M463.44 168.527L462.819 169.12L479.867 183.24L480.488 182.647L463.44 168.527Z" fill="#0B0D0E"/>
<path d="M329.307 178.653L329.016 179.422L364.879 190.146L365.169 189.377L329.307 178.653Z" fill="#0B0D0E"/>
<path d="M497.571 142.937L496.66 142.97L498.203 176.744L499.114 176.71L497.571 142.937Z" fill="#0B0D0E"/>
<path d="M250.84 124.445L273.882 169.154H327.487V164.369H277.847L256.013 122.519L250.84 124.445Z" fill="white"/>
<path d="M186.933 120.003C204.605 120.003 218.931 107.258 218.931 91.5353C218.931 75.8129 204.605 63.0674 186.933 63.0674C169.26 63.0674 154.934 75.8129 154.934 91.5353C154.934 107.258 169.26 120.003 186.933 120.003Z" fill="white"/>
<path d="M186.932 120.388C169.041 120.388 154.5 107.452 154.5 91.5348C154.5 75.6179 169.041 62.6816 186.932 62.6816C204.824 62.6816 219.364 75.6179 219.364 91.5348C219.364 107.431 204.801 120.388 186.932 120.388ZM186.932 63.4521C169.52 63.4521 155.367 76.0437 155.367 91.5348C155.367 107.026 169.52 119.617 186.932 119.617C204.345 119.617 218.498 107.026 218.498 91.5348C218.476 76.0437 204.322 63.4521 186.932 63.4521Z" fill="#0B0D0E"/>
<path d="M182.671 96.5838L182.625 95.4889C182.488 93.3194 183.286 91.1295 185.428 88.8383C186.955 87.2365 188.186 85.878 188.186 84.4383C188.186 82.9582 187.092 81.9849 184.699 81.9038C183.126 81.9038 181.212 82.4107 179.981 83.1812L178.363 78.5582C180.072 77.6661 182.944 76.8145 186.317 76.8145C192.608 76.8145 195.479 79.9167 195.479 83.4245C195.479 86.6485 193.246 88.7775 191.422 90.5415C189.668 92.2853 188.938 93.9276 188.984 95.8336V96.6041H182.671V96.5838ZM181.417 102.423C181.417 100.173 183.172 98.5709 185.656 98.5709C188.232 98.5709 189.895 100.173 189.941 102.423C189.941 104.634 188.232 106.276 185.656 106.276C183.126 106.296 181.417 104.634 181.417 102.423Z" fill="#FF5970"/>
<path d="M295.2 42.0537L294.685 42.3535L304.345 55.4861L304.86 55.1863L295.2 42.0537Z" fill="#0B0D0E"/>
<path d="M312.458 37.0091L311.839 54.6406L312.454 54.6577L313.073 37.0262L312.458 37.0091Z" fill="#0B0D0E"/>
<path d="M327.71 42.4187L319.54 55.3125L320.076 55.5814L328.246 42.6876L327.71 42.4187Z" fill="#0B0D0E"/>
<path d="M335.805 82.5325C335.805 71.2184 325.503 62.0332 312.763 62.0332C300.023 62.0332 289.721 71.1981 289.721 82.5325C289.721 88.5951 292.684 94.0495 297.402 97.8006V108.547H328.124V97.8006C332.842 94.0495 335.805 88.5951 335.805 82.5325Z" fill="#00E5FF"/>
<path d="M328.125 115.036H297.402V123.572H328.125V115.036Z" fill="#0B0D0E"/>
<path d="M298.769 80.4442L298.017 80.4036C298.382 73.7327 302.439 72.0092 305.47 71.2793L305.652 71.9079C301.163 73.0231 299.043 75.6387 298.769 80.4442Z" fill="#0B0D0E"/>
<path d="M454.935 13.2485C453.34 11.4439 451.425 9.96376 449.329 8.84856L451.904 2.98872L445.431 0.717773L442.856 6.57762C438.115 5.68546 433.033 6.29375 428.589 8.44304L424.213 3.49562L418.743 7.32784L423.119 12.2753C419.723 15.6208 417.877 19.8586 417.74 24.1774L410.72 25.0493L411.677 31.1728L418.697 30.3009C419.426 32.3691 420.589 34.3764 422.207 36.181C423.802 37.9856 425.717 39.4658 427.814 40.581L425.238 46.4408L431.711 48.6915L434.286 42.8316C439.027 43.7238 444.109 43.1155 448.554 40.9662L452.93 45.9339L458.4 42.1017L454.024 37.1543C457.42 33.8087 459.243 29.5709 459.402 25.2521L466.422 24.3802L465.465 18.2568L458.445 19.1286C457.693 17.0605 456.531 15.0531 454.935 13.2485ZM445.682 32.7746C440.691 36.2824 433.443 35.5119 429.523 31.0714C425.58 26.6309 426.446 20.183 431.437 16.6955C436.429 13.1877 443.676 13.9582 447.596 18.3987C451.539 22.8189 450.696 29.2668 445.682 32.7746Z" fill="#D2D2D2"/>
<path d="M506.17 42.3052C504.506 41.6361 502.774 41.2914 501.065 41.19L500.518 36.79L495.663 37.2767L496.21 41.6766C492.928 42.508 490.011 44.3531 488.028 46.989L483.493 45.1844L481.51 49.1586L486.046 50.9632C485.157 54.0249 485.59 57.188 487.071 59.9253L483.037 62.5004L485.886 66.0284L489.92 63.4534C491.151 64.528 492.587 65.4404 494.25 66.0893C495.914 66.7381 497.646 67.1031 499.356 67.2045L499.903 71.6044L504.757 71.1178L504.21 66.7178C507.492 65.8865 510.409 64.0414 512.392 61.4054L516.928 63.21L518.911 59.2359L514.375 57.4313C515.264 54.3696 514.831 51.2065 513.349 48.4692L517.384 45.8941L514.535 42.366L510.501 44.9411C509.293 43.8665 507.834 42.954 506.17 42.3052ZM507.606 57.1069C505.783 60.7363 501.019 62.3584 496.94 60.7566C492.86 59.1345 491.037 54.8968 492.837 51.2673C494.661 47.6379 499.424 46.0158 503.504 47.6176C507.583 49.2397 509.429 53.4774 507.606 57.1069Z" fill="#D2D2D2"/>
<path d="M120.405 14.7285H15.3145V59.8433H120.405V14.7285Z" fill="white"/>
<path d="M120.838 60.2278H14.8812V14.3223H120.861V60.2278H120.838ZM15.7473 59.4573H119.972V15.113H15.7473V59.4573Z" fill="#0B0D0E"/>
<path d="M235.683 245.656H189.303V228.766H235.683V245.656ZM190.215 244.845H234.772V229.577H190.215V244.845Z" fill="#D2D2D2"/>
<path d="M281.152 245.656H234.772V228.766H281.152V245.656ZM235.683 244.845H280.24V229.577H235.683V244.845Z" fill="#D2D2D2"/>
<path d="M115.666 24.918H30.8596V25.6885H115.666V24.918Z" fill="#D2D2D2"/>
<path d="M115.666 38.9287H30.8596V39.6992H115.666V38.9287Z" fill="#D2D2D2"/>
<path d="M115.666 52.9404H30.8596V53.7109H115.666V52.9404Z" fill="#D2D2D2"/>
<path d="M82.026 50.8921L66.8926 30.9403L50.6652 50.2838L39.6342 41.7678L34.0731 50.1622L33.2982 49.7364L39.4063 40.5107L50.5284 49.1078L66.9381 29.5412L82.0943 49.5336L107.074 22.2012L107.78 22.7284L82.026 50.8921Z" fill="#0B0D0E"/>
</svg>
