<svg width="28" height="28" viewBox="0 0 28 28" fill="none" xmlns="http://www.w3.org/2000/svg">
<path d="M13.5122 0.543945C6.04882 0.543945 0 6.59277 0 14.0562C0 21.5195 6.04882 27.5684 13.5122 27.5684C20.9756 27.5684 27.0244 21.5195 27.0244 14.0562C27.0244 6.59277 20.9756 0.543945 13.5122 0.543945ZM13.5122 21.6568C12.5621 21.6568 11.8232 20.9178 11.8232 19.9677C11.8232 19.0177 12.5146 18.2787 13.5122 18.2787C14.4148 18.2787 15.2012 19.0177 15.2012 19.9677C15.2012 20.9178 14.4148 21.6568 13.5122 21.6568ZM17.1594 14.1617L14.779 15.6396V15.7452C14.779 16.4313 14.1984 17.0119 13.5122 17.0119C12.826 17.0119 12.2454 16.4313 12.2454 15.7452V14.9007C12.2454 14.4784 12.4566 14.0562 12.8788 13.7922L15.8874 11.9977C16.2569 11.7865 16.468 11.417 16.468 10.9948C16.468 10.3614 15.8927 9.83359 15.2593 9.83359H12.5621C11.8812 9.83359 11.4009 10.3614 11.4009 10.9948C11.4009 11.681 10.8203 12.2616 10.1342 12.2616C9.44799 12.2616 8.86738 11.681 8.86738 10.9948C8.86738 8.93629 10.5036 7.30005 12.5146 7.30005H15.2118C17.3653 7.30005 19.0015 8.93629 19.0015 10.9948C19.0015 12.2616 18.3154 13.4755 17.1594 14.1617Z" fill="#730186"/>
</svg>
